<svg id="Layer_1" data-name="Layer 1" xmlns="http://www.w3.org/2000/svg" viewBox="0 0 28.3 26.5"><defs><style>.cls-1{fill:none;stroke:#233f95;stroke-linecap:round;stroke-linejoin:round;stroke-width:1.5px;}</style></defs><path class="cls-1" d="M23.75,20.75H8.31a1,1,0,0,1-.64-.23,1,1,0,0,1-.34-.59L4,1.57A1,1,0,0,0,3.65,1,1,1,0,0,0,3,.75H.75"/><path class="cls-1" d="M8.75,25.75a2.5,2.5,0,1,0-2.5-2.5A2.5,2.5,0,0,0,8.75,25.75Z"/><path class="cls-1" d="M23.75,25.75a2.5,2.5,0,1,0-2.5-2.5A2.5,2.5,0,0,0,23.75,25.75Z"/><path class="cls-1" d="M4.75,5.75h21.8a1.07,1.07,0,0,1,.43.09,1.13,1.13,0,0,1,.34.27,1,1,0,0,1,.22.82l-1.64,9a1,1,0,0,1-.34.59,1,1,0,0,1-.64.23H6.75"/></svg>