<svg id="Layer_1" data-name="Layer 1" xmlns="http://www.w3.org/2000/svg" viewBox="0 0 23.5 25.5"><defs><style>.cls-1{fill:none;stroke:#233f95;stroke-linecap:round;stroke-linejoin:round;stroke-width:1.5px;}</style></defs><path class="cls-1" d="M21.75,2.75h-20a1,1,0,0,0-1,1v20a1,1,0,0,0,1,1h20a1,1,0,0,0,1-1v-20A1,1,0,0,0,21.75,2.75Z"/><path class="cls-1" d="M17.75.75v4"/><path class="cls-1" d="M5.75.75v4"/><path class="cls-1" d="M.75,8.75h22"/><path class="cls-1" d="M7.25,13.75h3.5l-2,2.5a1.93,1.93,0,0,1,.94.24,1.87,1.87,0,0,1,.72.65,1.9,1.9,0,0,1,.33.91A2,2,0,0,1,10,19.8a2,2,0,0,1-.88.41,2,2,0,0,1-1.8-.55"/><path class="cls-1" d="M13.75,15.25l2-1.5v6.5"/></svg>