<svg id="Layer_1" data-name="Layer 1" xmlns="http://www.w3.org/2000/svg" viewBox="0 0 18.72 18.72"><defs><style>.cls-1{fill:none;stroke:#fff;stroke-linecap:round;stroke-linejoin:round;stroke-width:1.5px;}</style></defs><path class="cls-1" d="M5.67,9.42a7.94,7.94,0,0,0,3.66,3.65,1,1,0,0,0,.38.07.75.75,0,0,0,.35-.13l2.35-1.56a.79.79,0,0,1,.35-.13.74.74,0,0,1,.36.06l4.39,1.88a.75.75,0,0,1,.36.32A.74.74,0,0,1,18,14a4.43,4.43,0,0,1-1.49,2.81,4.51,4.51,0,0,1-3,1.12A12.74,12.74,0,0,1,.75,5.22a4.49,4.49,0,0,1,1.12-3A4.43,4.43,0,0,1,4.68.76a.74.74,0,0,1,.46.09.8.8,0,0,1,.32.36L7.34,5.6A.74.74,0,0,1,7.4,6a.77.77,0,0,1-.12.35L5.72,8.69a.77.77,0,0,0-.12.36.67.67,0,0,0,.07.37Z"/></svg>