<svg id="Layer_1" data-name="Layer 1" xmlns="http://www.w3.org/2000/svg" viewBox="0 0 22.5 18"><defs><style>.cls-1{fill:none;stroke:#425364;stroke-linecap:round;stroke-linejoin:round;stroke-width:1.5px;}</style></defs><path class="cls-1" d="M3.75.75l15,16.5"/><path class="cls-1" d="M13.77,11.77a3.74,3.74,0,1,1-5-5.54"/><path class="cls-1" d="M6.19,3.43A12.71,12.71,0,0,0,.75,9s3,6.75,10.5,6.75a11.1,11.1,0,0,0,5.06-1.18"/><path class="cls-1" d="M18.81,12.85A12.79,12.79,0,0,0,21.75,9s-3-6.75-10.5-6.75a11.46,11.46,0,0,0-1.94.16"/><path class="cls-1" d="M12,5.32a3.76,3.76,0,0,1,3,3.33"/></svg>