<svg id="Layer_1" data-name="Layer 1" xmlns="http://www.w3.org/2000/svg" viewBox="0 0 13.24 12.57"><defs><style>.cls-1{fill:none;stroke:#233f95;stroke-linecap:round;stroke-linejoin:round;stroke-width:1.5px;}</style></defs><path class="cls-1" d="M1.25.75H12a.5.5,0,0,1,.27.08.51.51,0,0,1,.19.22.45.45,0,0,1,0,.28.52.52,0,0,1-.12.26L8.25,6.11a.51.51,0,0,0-.13.33V10a.5.5,0,0,1-.06.24.55.55,0,0,1-.16.18l-2,1.33a.62.62,0,0,1-.26.09.58.58,0,0,1-.26-.06.58.58,0,0,1-.19-.19.45.45,0,0,1-.07-.25V6.44A.51.51,0,0,0,5,6.11L.88,1.59a.45.45,0,0,1-.12-.26.45.45,0,0,1,0-.28A.51.51,0,0,1,1,.83.5.5,0,0,1,1.25.75Z"/></svg>