<svg id="Layer_1" data-name="Layer 1" xmlns="http://www.w3.org/2000/svg" viewBox="0 0 25.5 23.56"><defs><style>.cls-1{fill:none;stroke-linecap:round;stroke-linejoin:round;stroke-width:1.5px;}.cls-1,.cls-2{stroke:#233f95;}.cls-2{stroke-width:0.13px;}</style></defs><path class="cls-1" d="M15.46,19.24l-1.85,3.08a1,1,0,0,1-1.72,0L10,19.24a1,1,0,0,0-.86-.49H1.75A1,1,0,0,1,1,18.46a1,1,0,0,1-.29-.71v-16A1,1,0,0,1,1,1,1,1,0,0,1,1.75.75h22a1,1,0,0,1,.71.29,1,1,0,0,1,.29.71v16a1,1,0,0,1-.08.38.9.9,0,0,1-.54.54,1,1,0,0,1-.38.08H16.32a1,1,0,0,0-.86.49Z"/><path class="cls-2" d="M13.81,9.75a1.06,1.06,0,1,1-1.06-1.06A1.05,1.05,0,0,1,13.81,9.75Z"/><path class="cls-2" d="M7.81,9.75A1.06,1.06,0,1,1,6.75,8.69,1.05,1.05,0,0,1,7.81,9.75Z"/><path class="cls-2" d="M19.81,9.75a1.06,1.06,0,1,1-1.06-1.06A1.05,1.05,0,0,1,19.81,9.75Z"/></svg>