<svg id="Layer_1" data-name="Layer 1" xmlns="http://www.w3.org/2000/svg" viewBox="0 0 22.51 28.5"><defs><style>.cls-1,.cls-2{fill:none;stroke-linecap:round;stroke-linejoin:round;stroke-width:1.5px;}.cls-1{stroke:#233f95;}.cls-2{stroke:#2eb34a;}</style></defs><path class="cls-1" d="M8,.75h5.48"/><path class="cls-1" d="M19,14.19c.06,4.19.88,6.66,1.61,8a1.06,1.06,0,0,1,.13.5,1.13,1.13,0,0,1-.12.51,1,1,0,0,1-.33.37.86.86,0,0,1-.46.14H1.67a1,1,0,0,1-.8-1.47c.76-1.42,1.63-4,1.63-8.53a9.67,9.67,0,0,1,.73-3.69,9,9,0,0,1,2-3,8.49,8.49,0,0,1,8.67-2.28"/><path class="cls-1" d="M14.39,23.75a4.23,4.23,0,0,1-1.07,2.83,3.52,3.52,0,0,1-2.59,1.17,3.48,3.48,0,0,1-2.58-1.17,4.18,4.18,0,0,1-1.07-2.83"/><path class="cls-2" d="M19,10.25a1.92,1.92,0,0,0,1.83-2,1.84,1.84,0,1,0-3.66,0A1.92,1.92,0,0,0,19,10.25Z"/><path class="cls-2" d="M19,6.25V4.75"/><path class="cls-2" d="M17.41,7.25,16.22,6.5"/><path class="cls-2" d="M17.41,9.25,16.22,10"/><path class="cls-2" d="M19,10.25v1.5"/><path class="cls-2" d="M20.57,9.25l1.19.75"/><path class="cls-2" d="M20.57,7.25l1.19-.75"/></svg>