<svg id="Layer_1" data-name="Layer 1" xmlns="http://www.w3.org/2000/svg" viewBox="0 0 23.5 26.5"><defs><style>.cls-1{fill:none;stroke:#233f95;stroke-linecap:round;stroke-linejoin:round;stroke-width:1.5px;}</style></defs><path class="cls-1" d="M11.75,18.75a2.5,2.5,0,1,0-2.5-2.5A2.5,2.5,0,0,0,11.75,18.75Z"/><path class="cls-1" d="M11.75,18.75v3"/><path class="cls-1" d="M21.75,9.75h-20a1,1,0,0,0-1,1v14a1,1,0,0,0,1,1h20a1,1,0,0,0,1-1v-14A1,1,0,0,0,21.75,9.75Z"/><path class="cls-1" d="M7.25,9.75V5.25a4.5,4.5,0,0,1,9,0v4.5"/></svg>