<svg width="25" height="25" viewBox="0 0 25 25" fill="none" xmlns="http://www.w3.org/2000/svg">
<path d="M7.55954 12.6019C8.59683 14.7226 10.3158 16.4338 12.4412 17.4614C12.5967 17.5351 12.7687 17.567 12.9403 17.554C13.1119 17.541 13.2771 17.4836 13.4198 17.3874L16.5492 15.3006C16.6877 15.2083 16.8469 15.152 17.0126 15.1368C17.1782 15.1215 17.3451 15.1479 17.498 15.2134L23.3526 17.7225C23.5515 17.807 23.7175 17.9538 23.8257 18.1409C23.9339 18.328 23.9783 18.5451 23.9524 18.7596C23.7673 20.2076 23.0608 21.5385 21.9652 22.5031C20.8695 23.4678 19.4598 23.9999 18 24C13.4913 24 9.1673 22.2089 5.97919 19.0208C2.79107 15.8327 1 11.5087 1 7C1.00008 5.54022 1.53224 4.13052 2.49685 3.03485C3.46146 1.93918 4.79237 1.23267 6.24037 1.04763C6.45489 1.02167 6.67204 1.06612 6.85909 1.1743C7.04614 1.28248 7.19298 1.44852 7.27746 1.6474L9.78877 7.50714C9.85373 7.6587 9.8802 7.82398 9.86582 7.98826C9.85144 8.15253 9.79666 8.31069 9.70636 8.44867L7.62681 11.6261C7.53216 11.7691 7.47621 11.9341 7.46442 12.1051C7.45263 12.2762 7.4854 12.4473 7.55954 12.6019V12.6019Z" stroke="#0033A1" stroke-width="1.5" stroke-linecap="round" stroke-linejoin="round"/>
</svg>
