<svg width="17" height="16" viewBox="0 0 17 16" fill="none" xmlns="http://www.w3.org/2000/svg">
<path d="M13.9998 3.5L2.99976 3.50001" stroke="#0033A1" stroke-width="1.5" stroke-linecap="round" stroke-linejoin="round"/>
<path d="M7 6.5V10.5" stroke="#0033A1" stroke-width="1.5" stroke-linecap="round" stroke-linejoin="round"/>
<path d="M10 6.5V10.5" stroke="#0033A1" stroke-width="1.5" stroke-linecap="round" stroke-linejoin="round"/>
<path d="M12.9998 3.5V13C12.9998 13.1326 12.9471 13.2598 12.8533 13.3536C12.7595 13.4473 12.6324 13.5 12.4998 13.5H4.49976C4.36715 13.5 4.23997 13.4473 4.1462 13.3536C4.05243 13.2598 3.99976 13.1326 3.99976 13V3.5" stroke="#0033A1" stroke-width="1.5" stroke-linecap="round" stroke-linejoin="round"/>
<path d="M11 3.5V2.5C11 2.23478 10.8946 1.98043 10.7071 1.79289C10.5196 1.60536 10.2652 1.5 10 1.5H7C6.73478 1.5 6.48043 1.60536 6.29289 1.79289C6.10536 1.98043 6 2.23478 6 2.5V3.5" stroke="#0033A1" stroke-width="1.5" stroke-linecap="round" stroke-linejoin="round"/>
</svg>
