<svg id="Layer_1" data-name="Layer 1" xmlns="http://www.w3.org/2000/svg" viewBox="0 0 29.5 20.5"><defs><style>.cls-1{fill:none;stroke:#233f95;stroke-linecap:round;stroke-linejoin:round;stroke-width:1.5px;}</style></defs><path class="cls-1" d="M28.75,7.75h-8v-5h5.32a1,1,0,0,1,.56.17.93.93,0,0,1,.37.46Z"/><path class="cls-1" d="M.75,10.75h20"/><path class="cls-1" d="M22.25,19.75a3,3,0,1,0-3-3A3,3,0,0,0,22.25,19.75Z"/><path class="cls-1" d="M7.25,19.75a3,3,0,1,0-3-3A3,3,0,0,0,7.25,19.75Z"/><path class="cls-1" d="M19.25,16.75h-9"/><path class="cls-1" d="M4.25,16.75H1.75A1,1,0,0,1,1,16.46a1,1,0,0,1-.29-.71v-14A1,1,0,0,1,1,1,1,1,0,0,1,1.75.75h19v13.4"/><path class="cls-1" d="M20.75,14.15V7.75h8v8a1,1,0,0,1-1,1h-2.5"/></svg>