<svg id="Layer_1" data-name="Layer 1" xmlns="http://www.w3.org/2000/svg" viewBox="0 0 25.51 25.98"><defs><style>.cls-1,.cls-2{fill:none;stroke-linecap:round;stroke-linejoin:round;stroke-width:1.5px;}.cls-1{stroke:#233f95;}.cls-2{stroke:#2eb34a;}</style></defs><path class="cls-1" d="M12.73,17.25a5,5,0,1,0-5-5A5,5,0,0,0,12.73,17.25Z"/><path class="cls-1" d="M4.7,22.17a9,9,0,0,1,16.05,0"/><path class="cls-1" d="M24.56,11.25A12,12,0,0,1,4.26,21.71,11.91,11.91,0,0,1,.89,15.08,12,12,0,0,1,14.73,1.42"/><path class="cls-2" d="M21.73,6.25a2,2,0,1,0-2-2A2,2,0,0,0,21.73,6.25Z"/><path class="cls-2" d="M21.73,2.25V.75"/><path class="cls-2" d="M20,3.25l-1.3-.75"/><path class="cls-2" d="M20,5.25,18.69,6"/><path class="cls-2" d="M21.73,6.25v1.5"/><path class="cls-2" d="M23.46,5.25l1.3.75"/><path class="cls-2" d="M23.46,3.25l1.3-.75"/></svg>