<svg id="Layer_1" data-name="Layer 1" xmlns="http://www.w3.org/2000/svg" viewBox="0 0 21 18.75"><defs><style>.cls-1{fill:none;stroke:#000;stroke-linecap:round;stroke-linejoin:round;stroke-width:1.5px;}</style></defs><path class="cls-1" d="M10.5,6.75v4.5"/><path d="M10.5,15.47a.85.85,0,1,0-.85-.85A.85.85,0,0,0,10.5,15.47Z"/><path class="cls-1" d="M9.2,1.5,1,15.75a1.5,1.5,0,0,0-.2.75,1.53,1.53,0,0,0,.2.75,1.45,1.45,0,0,0,.55.55,1.53,1.53,0,0,0,.75.2h16.5a1.53,1.53,0,0,0,.75-.2,1.5,1.5,0,0,0,.54-.55,1.44,1.44,0,0,0,.21-.75,1.42,1.42,0,0,0-.21-.75L11.8,1.5A1.61,1.61,0,0,0,11.25,1a1.53,1.53,0,0,0-.75-.2,1.5,1.5,0,0,0-.75.2,1.45,1.45,0,0,0-.55.55Z"/></svg>