<svg id="Layer_1" data-name="Layer 1" xmlns="http://www.w3.org/2000/svg" xmlns:xlink="http://www.w3.org/1999/xlink" viewBox="0 0 30.64 32"><defs><style>.cls-1{fill:#276ef1;}</style></defs><path class="cls-1" d="M16,0A15.32,15.32,0,0,0,4.81,25.78L2.44,31a.68.68,0,0,0,.1.71.67.67,0,0,0,.52.25l.16,0,8.33-2A15.32,15.32,0,1,0,16,0Zm0,29.28a14.16,14.16,0,0,1-4.17-.64.74.74,0,0,0-.27-.05h-.14L4.25,30.33l2-4.41a.69.69,0,0,0-.14-.76A14,14,0,1,1,16,29.28Z" transform="translate(-0.68 0)"/><image width="19" height="19" transform="translate(5.82 6.35)" xlink:href="../../../../../../../Desktop/dashboard%203/pop_up/Vector-1.jpg"/></svg>